<svg version="1.1" id="Layer_1" xmlns="http://www.w3.org/2000/svg" xmlns:xlink="http://www.w3.org/1999/xlink" x="0px" y="0px"
	 width="100%" viewBox="0 0 99 99" enable-background="new 0 0 99 99" xml:space="preserve">
<path fill="#ffffff" opacity="1.000000" stroke="none" 
	d="
M77.342865,28.842991 
	C79.416252,30.498247 79.532654,31.642897 77.677986,33.388149 
	C71.990875,38.739780 66.518623,44.319733 60.907112,49.865978 
	C67.518028,56.325291 73.882011,62.543327 80.496109,69.005745 
	C76.291634,72.807961 72.747902,76.012642 69.323639,79.109283 
	C63.537415,73.280167 57.264622,66.960876 50.434196,60.079819 
	C44.063641,67.079758 38.140011,73.588615 32.016991,80.316566 
	C28.055962,76.019623 24.818548,72.507660 21.510754,68.919350 
	C27.318670,63.166145 33.584225,56.959621 39.865547,50.737476 
	C33.430298,44.405499 27.076199,38.153366 20.588795,31.770067 
	C24.625883,28.301355 28.220554,25.212774 31.908028,22.044456 
	C37.821526,28.313696 43.713398,34.560005 49.671597,40.876640 
	C56.763542,33.717220 62.968498,27.453232 69.429047,20.931213 
	C72.033760,23.547804 74.549171,26.074684 77.342865,28.842991 
z"/>
</svg>